<svg width="20" height="20" viewBox="0 0 20 20" fill="none" xmlns="http://www.w3.org/2000/svg">
<g clip-path="url(#clip0_1119_350)">
<mask id="mask0_1119_350" style="mask-type:luminance" maskUnits="userSpaceOnUse" x="0" y="0" width="20" height="20">
<path d="M20 0H0V20H20V0Z" fill="white"/>
</mask>
<g mask="url(#mask0_1119_350)">
<g opacity="0.8">
<path d="M4.875 10.5889C5.63439 10.5889 6.25 9.97326 6.25 9.21387C6.25 8.45448 5.63439 7.83887 4.875 7.83887C4.11561 7.83887 3.5 8.45448 3.5 9.21387C3.5 9.97326 4.11561 10.5889 4.875 10.5889Z" fill="white"/>
<path d="M9 5.46387C9 6.22326 8.38439 6.83887 7.625 6.83887C6.86561 6.83887 6.25 6.22326 6.25 5.46387C6.25 4.70448 6.86561 4.08887 7.625 4.08887C8.38439 4.08887 9 4.70448 9 5.46387Z" fill="white"/>
<path d="M12.375 6.83887C13.1344 6.83887 13.75 6.22326 13.75 5.46387C13.75 4.70448 13.1344 4.08887 12.375 4.08887C11.6156 4.08887 11 4.70448 11 5.46387C11 6.22326 11.6156 6.83887 12.375 6.83887Z" fill="white"/>
<path d="M16.5 9.21387C16.5 9.97326 15.8844 10.5889 15.125 10.5889C14.3656 10.5889 13.75 9.97326 13.75 9.21387C13.75 8.45448 14.3656 7.83887 15.125 7.83887C15.8844 7.83887 16.5 8.45448 16.5 9.21387Z" fill="white"/>
<path fill-rule="evenodd" clip-rule="evenodd" d="M10 19.375C4.875 19.375 0.625 15.125 0.625 10C0.625 4.875 4.875 0.625 10 0.625C15.125 0.625 19.375 4.375 19.375 9C19.375 12 16.875 14.5 13.875 14.5H12.125C11.75 14.5 11.375 14.875 11.375 15.25C11.375 15.5 11.5 15.625 11.625 15.75C12 16.125 12.125 16.625 12.125 17.125C12.125 18.375 11.125 19.375 10 19.375ZM10 2C5.625 2 2 5.625 2 10C2 14.375 5.625 18 10 18C10.375 18 10.75 17.625 10.75 17.25C10.75 17 10.625 16.875 10.5 16.75C10.125 16.375 10 15.875 10 15.375C10 14.25 11 13.25 12.125 13.25H13.875C16.125 13.25 18 11.375 18 9.125C18 5.125 14.375 2 10 2Z" fill="white"/>
</g>
</g>
</g>
<defs>
<clipPath id="clip0_1119_350">
<rect width="20" height="20" fill="white"/>
</clipPath>
</defs>
</svg>
