<svg width="20" height="20" viewBox="0 0 20 20" fill="none" xmlns="http://www.w3.org/2000/svg">
<g opacity="0.8">
<path fill-rule="evenodd" clip-rule="evenodd" d="M14.6125 15.25V16.7875C14.6142 16.8854 14.5963 16.9826 14.56 17.0736C14.5236 17.1645 14.4696 17.2473 14.4009 17.3171C14.3323 17.3869 14.2505 17.4423 14.1601 17.4802C14.0698 17.518 13.9729 17.5375 13.875 17.5375C13.6761 17.5375 13.4853 17.4585 13.3446 17.3178C13.204 17.1772 13.125 16.9864 13.125 16.7875V15.25C13.125 14.6267 12.8774 14.029 12.4367 13.5883C11.996 13.1476 11.3982 12.9 10.775 12.9H4.58747C3.96638 12.9033 3.37189 13.1523 2.93388 13.5927C2.49587 14.033 2.24997 14.6289 2.24998 15.25V16.7875C2.24998 16.9864 2.17098 17.1772 2.03033 17.3178C1.88967 17.4585 1.69888 17.5375 1.49997 17.5375C1.30106 17.5375 1.1103 17.4585 0.96965 17.3178C0.828998 17.1772 0.75 16.9864 0.75 16.7875V15.25C0.75 14.2322 1.15429 13.2561 1.87396 12.5365C2.59363 11.8168 3.5697 11.4125 4.58747 11.4125H10.775C11.2794 11.4108 11.7791 11.509 12.2455 11.7012C12.7118 11.8935 13.1355 12.1761 13.4922 12.5328C13.8489 12.8894 14.1315 13.3132 14.3237 13.7795C14.516 14.2458 14.6141 14.7456 14.6125 15.25Z" fill="white"/>
<path fill-rule="evenodd" clip-rule="evenodd" d="M7.65 2.125C6.89102 2.125 6.14908 2.35007 5.51801 2.77174C4.88693 3.19341 4.39507 3.79275 4.10462 4.49396C3.81417 5.19518 3.73816 5.96674 3.88623 6.71114C4.0343 7.45554 4.39981 8.13933 4.93649 8.67602C5.47318 9.2127 6.15693 9.57821 6.90133 9.72628C7.64573 9.87435 8.41734 9.79834 9.11855 9.50789C9.81976 9.21744 10.4191 8.72558 10.8407 8.0945C11.2624 7.46343 11.4875 6.72149 11.4875 5.96251C11.4842 4.94575 11.0788 3.97158 10.3599 3.25262C9.64093 2.53367 8.66676 2.1283 7.65 2.125ZM7.65 8.31251C7.18522 8.31251 6.73088 8.17469 6.34442 7.91647C5.95797 7.65825 5.65673 7.29123 5.47887 6.86182C5.301 6.43242 5.25449 5.95991 5.34516 5.50406C5.43584 5.0482 5.65967 4.62944 5.98832 4.30079C6.31697 3.97214 6.7357 3.74834 7.19155 3.65767C7.64741 3.56699 8.11991 3.61351 8.54932 3.79137C8.97872 3.96924 9.34575 4.27047 9.60397 4.65693C9.86219 5.04338 10 5.49772 10 5.96251C10 6.58577 9.7524 7.18348 9.31168 7.62419C8.87097 8.0649 8.27326 8.31251 7.65 8.31251Z" fill="white"/>
<path fill-rule="evenodd" clip-rule="evenodd" d="M19.2501 15.25V16.7875C19.2517 16.8854 19.2339 16.9826 19.1976 17.0736C19.1613 17.1645 19.1072 17.2473 19.0386 17.3171C18.9699 17.3869 18.888 17.4423 18.7977 17.4802C18.7074 17.518 18.6105 17.5375 18.5126 17.5375C18.3137 17.5375 18.1229 17.4585 17.9823 17.3178C17.8416 17.1772 17.7626 16.9864 17.7626 16.7875V15.25C17.7647 14.7285 17.5923 14.2213 17.2729 13.8091C16.9536 13.3969 16.5055 13.1032 16.0001 12.975C15.808 12.925 15.6435 12.8009 15.5428 12.6298C15.442 12.4588 15.4132 12.2548 15.4626 12.0625C15.4881 11.968 15.5323 11.8796 15.5924 11.8023C15.6524 11.725 15.7273 11.6605 15.8126 11.6125C15.9245 11.5417 16.0553 11.5069 16.1876 11.5125C16.2495 11.5004 16.3132 11.5004 16.3751 11.5125C17.203 11.7247 17.9359 12.2081 18.457 12.8855C18.9781 13.5629 19.2573 14.3954 19.2501 15.25Z" fill="white"/>
<path fill-rule="evenodd" clip-rule="evenodd" d="M16.1624 5.975C16.1695 6.83288 15.889 7.66838 15.3656 8.34813C14.8422 9.02787 14.1061 9.51265 13.2749 9.725C13.1808 9.75027 13.0827 9.75664 12.9861 9.74377C12.8896 9.7309 12.7965 9.69899 12.7124 9.64997C12.5441 9.5455 12.423 9.37963 12.3749 9.18747C12.3496 9.09341 12.3432 8.99529 12.3561 8.89874C12.369 8.80219 12.4008 8.70916 12.4499 8.625C12.5553 8.45759 12.7208 8.33681 12.9124 8.28747C13.4165 8.15697 13.863 7.86272 14.1817 7.45095C14.5004 7.03918 14.6734 6.53323 14.6734 6.0125C14.6734 5.49178 14.5004 4.98579 14.1817 4.57402C13.863 4.16225 13.4165 3.868 12.9124 3.73749C12.7198 3.68279 12.5548 3.55791 12.4499 3.38749C12.4002 3.3036 12.3679 3.21052 12.355 3.11387C12.3421 3.01722 12.3489 2.91896 12.3749 2.82498C12.3982 2.73034 12.4401 2.64126 12.4981 2.56291C12.5561 2.48456 12.629 2.4185 12.7127 2.36851C12.7964 2.31853 12.8892 2.2856 12.9857 2.2717C13.0822 2.25779 13.1805 2.26317 13.2749 2.28749C14.0957 2.49719 14.8241 2.97262 15.3464 3.63965C15.8687 4.30668 16.1556 5.12783 16.1624 5.975Z" fill="white"/>
</g>
</svg>
