<svg width="20" height="20" viewBox="0 0 20 20" fill="none" xmlns="http://www.w3.org/2000/svg">
<g opacity="0.8">
<path fill-rule="evenodd" clip-rule="evenodd" d="M0.835938 3.03633C0.835938 2.65167 1.14641 2.33984 1.52939 2.33984H13.0838C13.4668 2.33984 13.7772 2.65167 13.7772 3.03633V13.094C13.7772 13.4787 13.4668 13.7905 13.0838 13.7905H1.52939C1.14641 13.7905 0.835938 13.4787 0.835938 13.094V3.03633ZM2.22284 3.73282V12.3975H12.3903V3.73282H2.22284Z" fill="white"/>
<path fill-rule="evenodd" clip-rule="evenodd" d="M12.3904 6.90474C12.3904 6.52008 12.7009 6.20825 13.0839 6.20825H16.165C16.349 6.20825 16.5253 6.28163 16.6554 6.41225L18.9663 8.73325C19.0963 8.86386 19.1694 9.04102 19.1694 9.22574V13.0941C19.1694 13.4788 18.8589 13.7906 18.4759 13.7906H13.0839C12.7009 13.7906 12.3904 13.4788 12.3904 13.0941V6.90474ZM13.7773 7.60123V12.3976H17.7825V9.51424L15.8778 7.60123H13.7773Z" fill="white"/>
<path fill-rule="evenodd" clip-rule="evenodd" d="M4.99564 13.7905C4.31507 13.7905 3.76336 14.3446 3.76336 15.0281C3.76336 15.7117 4.31507 16.2658 4.99564 16.2658C5.67621 16.2658 6.22792 15.7117 6.22792 15.0281C6.22792 14.3446 5.67621 13.7905 4.99564 13.7905ZM2.37646 15.0281C2.37646 13.5753 3.5491 12.3975 4.99564 12.3975C6.44218 12.3975 7.61482 13.5753 7.61482 15.0281C7.61482 16.481 6.44218 17.6588 4.99564 17.6588C3.5491 17.6588 2.37646 16.481 2.37646 15.0281Z" fill="white"/>
<path fill-rule="evenodd" clip-rule="evenodd" d="M15.0096 13.7905C14.329 13.7905 13.7773 14.3446 13.7773 15.0281C13.7773 15.7117 14.329 16.2658 15.0096 16.2658C15.6902 16.2658 16.2419 15.7117 16.2419 15.0281C16.2419 14.3446 15.6902 13.7905 15.0096 13.7905ZM12.3904 15.0281C12.3904 13.5753 13.5631 12.3975 15.0096 12.3975C16.4561 12.3975 17.6288 13.5753 17.6288 15.0281C17.6288 16.481 16.4561 17.6588 15.0096 17.6588C13.5631 17.6588 12.3904 16.481 12.3904 15.0281Z" fill="white"/>
</g>
</svg>
