<svg width="20" height="20" viewBox="0 0 20 20" fill="none" xmlns="http://www.w3.org/2000/svg">
<g clip-path="url(#clip0_1119_335)">
<mask id="mask0_1119_335" style="mask-type:luminance" maskUnits="userSpaceOnUse" x="0" y="0" width="20" height="20">
<path d="M20 0H0V20H20V0Z" fill="white"/>
</mask>
<g mask="url(#mask0_1119_335)">
<g opacity="0.8">
<path d="M12.7624 6.16245C12.909 6.27648 13.0072 6.44164 13.0374 6.62494C13.0641 6.80554 13.0193 6.98945 12.9124 7.13744L8.22486 13.3875C8.1599 13.4774 8.07411 13.5503 7.97484 13.5999C7.87381 13.6499 7.76256 13.6756 7.64987 13.675C7.49752 13.6734 7.34929 13.6254 7.22487 13.5375C7.14964 13.479 7.08602 13.4069 7.03734 13.3249C6.98412 13.2464 6.94991 13.1565 6.93736 13.0625C6.92485 12.9712 6.92485 12.8787 6.93736 12.7875C6.9663 12.6983 7.00844 12.6141 7.06237 12.5375L11.7499 6.28745C11.8069 6.21249 11.8783 6.14957 11.9598 6.10236C12.0414 6.05516 12.1315 6.02461 12.2249 6.01245H12.3374C12.4921 6.01228 12.6421 6.06523 12.7624 6.16245Z" fill="white"/>
<path d="M11.7977 10.9404C11.965 10.8718 12.1442 10.8368 12.325 10.8375C12.5059 10.8368 12.6851 10.8718 12.8524 10.9404C13.0197 11.009 13.1718 11.11 13.3 11.2375C13.4915 11.4301 13.6217 11.6751 13.6742 11.9416C13.7266 12.2082 13.6989 12.4842 13.5946 12.735C13.4903 12.9858 13.3141 13.2001 13.0881 13.3509C12.8622 13.5016 12.5966 13.5821 12.325 13.5821C12.0534 13.5821 11.7879 13.5016 11.5619 13.3509C11.336 13.2001 11.1597 12.9858 11.0554 12.735C10.9511 12.4842 10.9234 12.2082 10.9759 11.9416C11.0283 11.6751 11.1585 11.4301 11.35 11.2375C11.4782 11.11 11.6304 11.009 11.7977 10.9404Z" fill="white"/>
<path d="M8.61265 8.49997C8.86914 8.24028 9.01296 7.88998 9.01296 7.52497C9.01296 7.15997 8.86914 6.80967 8.61265 6.54997C8.35295 6.29348 8.00265 6.14966 7.63765 6.14966C7.27264 6.14966 6.92234 6.29348 6.66265 6.54997C6.40406 6.80856 6.25879 7.15928 6.25879 7.52497C6.25879 7.89067 6.40406 8.24138 6.66265 8.49997C6.92124 8.75856 7.27195 8.90383 7.63765 8.90383C8.00334 8.90383 8.35406 8.75856 8.61265 8.49997Z" fill="white"/>
<path fill-rule="evenodd" clip-rule="evenodd" d="M18.4 10.2625L19.0875 11.7875C19.2286 12.0927 19.2971 12.4264 19.2875 12.7625C19.29 13.0899 19.2217 13.4139 19.0875 13.7125C18.9612 14.0033 18.7736 14.2634 18.5375 14.475C18.3002 14.6878 18.0244 14.8533 17.725 14.9625L16.1875 15.55C16.0605 15.5947 15.9452 15.6673 15.85 15.7625C15.7548 15.8577 15.6822 15.973 15.6375 16.1L15.05 17.6375C14.9382 17.9414 14.7636 18.2182 14.5375 18.45C14.312 18.687 14.0395 18.8743 13.7375 19C13.4404 19.1319 13.1188 19.2001 12.7937 19.2001C12.4686 19.2001 12.1471 19.1319 11.85 19L10.35 18.3375C10.2306 18.2738 10.0978 18.2395 9.9625 18.2375C9.82819 18.2352 9.69524 18.2651 9.57497 18.325L8.07499 19.0125C7.70015 19.1845 7.28645 19.2543 6.87592 19.2148C6.46538 19.1753 6.07263 19.0279 5.73749 18.7875C5.34063 18.5131 5.03568 18.1253 4.86248 17.675L4.28749 16.1375C4.24278 16.0105 4.17016 15.8952 4.07497 15.8C3.97979 15.7048 3.86446 15.6322 3.73749 15.5875L2.1875 15C1.88784 14.8971 1.61297 14.7328 1.3805 14.5176C1.14803 14.3023 0.963058 14.0409 0.837479 13.75C0.703235 13.4514 0.635011 13.1274 0.637474 12.8C0.635232 12.4767 0.703487 12.1567 0.837479 11.8625L1.525 10.3625C1.62511 10.1138 1.62511 9.83611 1.525 9.58748L0.837479 8.0875C0.70508 7.78782 0.6329 7.46502 0.625 7.13749C0.624989 6.81163 0.688676 6.4889 0.812492 6.18748C0.932122 5.8853 1.11544 5.61246 1.34998 5.3875C1.58372 5.16392 1.86002 4.98963 2.16248 4.87499L3.7125 4.3C3.83919 4.24885 3.95404 4.17224 4.04999 4.07497C4.14189 3.98198 4.21414 3.87149 4.26247 3.75L4.83749 2.19997C4.94604 1.89156 5.1259 1.61317 5.36247 1.38748C5.58795 1.15046 5.86045 0.963131 6.16249 0.837479C6.46077 0.709908 6.78183 0.64415 7.10625 0.64415C7.43066 0.64415 7.75168 0.709908 8.04996 0.837479L9.54998 1.525C9.79861 1.62511 10.0763 1.62511 10.325 1.525L11.825 0.837479C12.1208 0.706666 12.4392 0.634521 12.7625 0.625C13.0883 0.624989 13.4111 0.688676 13.7125 0.812492C14.0102 0.938645 14.2797 1.12306 14.5051 1.3549C14.7305 1.58675 14.9073 1.86131 15.025 2.16248L15.6125 3.7125C15.6608 3.83399 15.7331 3.94449 15.825 4.03748C15.9209 4.13474 16.0358 4.21131 16.1625 4.26247L17.7 4.83749C18.0003 4.93878 18.2769 5.10043 18.5125 5.3125C18.7489 5.52873 18.9364 5.79295 19.0625 6.08749C19.2028 6.38455 19.2755 6.70896 19.2755 7.03747C19.2755 7.36598 19.2028 7.69042 19.0625 7.98748L18.4 9.4875C18.3387 9.60725 18.3086 9.74052 18.3125 9.87499C18.3116 10.0092 18.3415 10.1417 18.4 10.2625ZM17.7125 12.3125L17.1 10.8625C16.9775 10.5614 16.922 10.2372 16.9375 9.91249C16.9467 9.57434 17.0276 9.242 17.175 8.93749L17.8625 7.43748C17.9503 7.1952 17.9503 6.92975 17.8625 6.68747C17.7584 6.44925 17.5656 6.26097 17.325 6.16249L15.775 5.5875C15.4545 5.47516 15.1638 5.29132 14.925 5.04997C14.6862 4.80899 14.5028 4.51896 14.3875 4.19998L13.8 2.64999C13.761 2.5269 13.6923 2.41528 13.6 2.32498C13.5115 2.2334 13.4051 2.16108 13.2875 2.1125C13.1719 2.05882 13.0461 2.03098 12.9187 2.03098C12.7914 2.03098 12.6655 2.05882 12.55 2.1125L11.05 2.79999C10.7396 2.9401 10.403 3.01254 10.0625 3.01254C9.72196 3.01254 9.38533 2.9401 9.07497 2.79999L7.575 2.1125C7.452 2.06233 7.32034 2.03681 7.1875 2.03747C7.06795 2.01253 6.94454 2.01253 6.82499 2.03747C6.58677 2.14158 6.39845 2.3344 6.29997 2.575L5.72498 4.12498C5.60313 4.42297 5.42484 4.69463 5.19997 4.925C4.96109 5.16635 4.67042 5.35015 4.34998 5.46249L2.79999 6.03748C2.66694 6.07912 2.54365 6.14714 2.43748 6.23749C2.34016 6.33605 2.25989 6.45009 2.19997 6.57497C2.11212 6.81726 2.11212 7.0827 2.19997 7.32498L2.8875 8.825C3.02761 9.13536 3.10005 9.47195 3.10005 9.81247C3.10005 10.153 3.02761 10.4896 2.8875 10.8L2.19997 12.3C2.15285 12.4158 2.12334 12.5379 2.11246 12.6625C2.11213 12.7912 2.13767 12.9188 2.1875 13.0375C2.23909 13.1535 2.31104 13.2594 2.39998 13.35C2.49568 13.4353 2.60572 13.503 2.72499 13.55L4.27498 14.1375C4.5947 14.2514 4.88506 14.4349 5.12505 14.6749C5.36503 14.9149 5.54864 15.2053 5.6625 15.525L6.23749 17.075C6.3402 17.3128 6.52716 17.5042 6.76247 17.6125C6.87922 17.6524 7.00159 17.6735 7.12498 17.675C7.25781 17.6756 7.38948 17.6502 7.51247 17.6L9.01249 16.9125C9.32285 16.7724 9.65948 16.6999 10 16.6999C10.3405 16.6999 10.6771 16.7724 10.9875 16.9125L12.4875 17.6C12.7298 17.6878 12.9952 17.6878 13.2375 17.6C13.4734 17.4903 13.6572 17.293 13.75 17.05L14.3375 15.5125C14.4498 15.192 14.6336 14.9014 14.875 14.6625C15.1106 14.4171 15.4023 14.2327 15.725 14.125L17.1875 13.5625C17.3068 13.5155 17.4168 13.4478 17.5125 13.3625C17.6014 13.2719 17.6734 13.166 17.725 13.05C17.7748 12.9313 17.8003 12.8037 17.8 12.675C17.7891 12.5505 17.7596 12.4282 17.7125 12.3125Z" fill="white"/>
</g>
</g>
</g>
<defs>
<clipPath id="clip0_1119_335">
<rect width="20" height="20" fill="white"/>
</clipPath>
</defs>
</svg>
