<svg width="16" height="16" viewBox="0 0 16 16" fill="none" xmlns="http://www.w3.org/2000/svg">
<g clip-path="url(#clip0_1124_385)">
<mask id="mask0_1124_385" style="mask-type:luminance" maskUnits="userSpaceOnUse" x="0" y="0" width="16" height="16">
<path d="M16 0H0V16H16V0Z" fill="white"/>
</mask>
<g mask="url(#mask0_1124_385)">
<path fill-rule="evenodd" clip-rule="evenodd" d="M8.88555 11.6358C8.88555 12.1266 8.48767 12.5245 7.99685 12.5245C7.50604 12.5245 7.10815 12.1266 7.10815 11.6358C7.10815 11.145 7.50604 10.7471 7.99685 10.7471C8.48767 10.7471 8.88555 11.145 8.88555 11.6358Z" fill="white"/>
<path fill-rule="evenodd" clip-rule="evenodd" d="M6.99921 3.8951C7.47557 3.69778 7.99975 3.64616 8.50545 3.74675C9.01115 3.84734 9.47567 4.09563 9.84026 4.46022C10.2048 4.82481 10.4531 5.28932 10.5537 5.79503C10.6543 6.30073 10.6027 6.8249 10.4054 7.30126C10.2081 7.77762 9.87392 8.18477 9.44521 8.47123C9.16624 8.65763 8.85538 8.78748 8.53019 8.85544V8.96971C8.53019 9.26427 8.29141 9.50305 7.99685 9.50305C7.7023 9.50305 7.46352 9.26427 7.46352 8.96971V8.37725C7.46352 8.2358 7.51971 8.10014 7.61973 8.00012C7.71975 7.9001 7.85541 7.84391 7.99685 7.84391C8.3015 7.84391 8.5993 7.75358 8.8526 7.58433C9.1059 7.41508 9.30332 7.17452 9.4199 6.89306C9.53648 6.61161 9.56699 6.30191 9.50756 6.00312C9.44812 5.70433 9.30142 5.42988 9.08601 5.21446C8.87059 4.99905 8.59614 4.85235 8.29735 4.79292C7.99856 4.73349 7.68886 4.76399 7.40741 4.88057C7.12596 4.99715 6.8854 5.19458 6.71615 5.44788C6.5469 5.70118 6.45656 5.99898 6.45656 6.30362C6.45656 6.59817 6.21778 6.83695 5.92323 6.83695C5.62867 6.83695 5.38989 6.59817 5.38989 6.30362C5.38989 5.78801 5.54279 5.28398 5.82924 4.85527C6.1157 4.42655 6.52285 4.09241 6.99921 3.8951Z" fill="white"/>
<path fill-rule="evenodd" clip-rule="evenodd" d="M7.99687 1.86745C4.60953 1.86745 1.86354 4.61343 1.86354 8.00078C1.86354 11.3881 4.60953 14.1341 7.99687 14.1341C11.3842 14.1341 14.1302 11.3881 14.1302 8.00078C14.1302 4.61343 11.3842 1.86745 7.99687 1.86745ZM0.796875 8.00078C0.796875 4.02433 4.02042 0.800781 7.99687 0.800781C11.9733 0.800781 15.1969 4.02433 15.1969 8.00078C15.1969 11.9772 11.9733 15.2008 7.99687 15.2008C4.02042 15.2008 0.796875 11.9772 0.796875 8.00078Z" fill="white"/>
</g>
</g>
<defs>
<clipPath id="clip0_1124_385">
<rect width="16" height="16" fill="white"/>
</clipPath>
</defs>
</svg>
