<svg width="14" height="14" viewBox="0 0 14 14" fill="none" xmlns="http://www.w3.org/2000/svg">
<g clip-path="url(#clip0_1121_371)">
<mask id="mask0_1121_371" style="mask-type:luminance" maskUnits="userSpaceOnUse" x="0" y="0" width="14" height="14">
<path d="M14 0H0V14H14V0Z" fill="white"/>
</mask>
<g mask="url(#mask0_1121_371)">
<path fill-rule="evenodd" clip-rule="evenodd" d="M7.78081 10.1799C7.78081 10.6093 7.43266 10.9575 7.0032 10.9575C6.57374 10.9575 6.22559 10.6093 6.22559 10.1799C6.22559 9.75036 6.57374 9.40222 7.0032 9.40222C7.43266 9.40222 7.78081 9.75036 7.78081 10.1799Z" fill="#4D4D4D"/>
<path fill-rule="evenodd" clip-rule="evenodd" d="M6.13007 3.40667C6.54689 3.23402 7.00554 3.18885 7.44803 3.27686C7.89052 3.36488 8.29697 3.58213 8.61598 3.90115C8.935 4.22017 9.15225 4.62662 9.24027 5.06911C9.32829 5.51159 9.28311 5.97025 9.11046 6.38706C8.93781 6.80388 8.64544 7.16013 8.27032 7.41078C8.02622 7.57388 7.75422 7.6875 7.46968 7.74697V7.84696C7.46968 8.10469 7.26074 8.31362 7.00301 8.31362C6.74528 8.31362 6.53634 8.10469 6.53634 7.84696V7.32855C6.53634 7.20478 6.58551 7.08608 6.67303 6.99857C6.76054 6.91105 6.87924 6.86188 7.00301 6.86188C7.26957 6.86188 7.53015 6.78284 7.75178 6.63475C7.97342 6.48665 8.14617 6.27616 8.24818 6.02989C8.35018 5.78362 8.37687 5.51263 8.32487 5.25119C8.27287 4.98975 8.14451 4.7496 7.95602 4.56111C7.76753 4.37263 7.52738 4.24427 7.26594 4.19226C7.0045 4.14026 6.73351 4.16695 6.48724 4.26896C6.24097 4.37097 6.03048 4.54371 5.88239 4.76535C5.73429 4.98699 5.65525 5.24756 5.65525 5.51412C5.65525 5.77186 5.44631 5.98079 5.18858 5.98079C4.93085 5.98079 4.72192 5.77186 4.72192 5.51412C4.72192 5.06297 4.8557 4.62194 5.10635 4.24682C5.357 3.87169 5.71326 3.57932 6.13007 3.40667Z" fill="#4D4D4D"/>
<path fill-rule="evenodd" clip-rule="evenodd" d="M7.00313 1.63255C4.0392 1.63255 1.63646 4.03529 1.63646 6.99922C1.63646 9.96315 4.0392 12.3659 7.00313 12.3659C9.96705 12.3659 12.3698 9.96315 12.3698 6.99922C12.3698 4.03529 9.96705 1.63255 7.00313 1.63255ZM0.703125 6.99922C0.703125 3.51982 3.52373 0.699219 7.00313 0.699219C10.4825 0.699219 13.3031 3.51982 13.3031 6.99922C13.3031 10.4786 10.4825 13.2992 7.00313 13.2992C3.52373 13.2992 0.703125 10.4786 0.703125 6.99922Z" fill="#4D4D4D"/>
</g>
</g>
<defs>
<clipPath id="clip0_1121_371">
<rect width="14" height="14" fill="white"/>
</clipPath>
</defs>
</svg>
