<svg width="20" height="20" viewBox="0 0 20 20" fill="none" xmlns="http://www.w3.org/2000/svg">
<g opacity="0.8">
<path fill-rule="evenodd" clip-rule="evenodd" d="M12.1074 2.29084C13.0654 1.76834 14.2333 2.46167 14.2333 3.55281V16.4471C14.2333 17.5383 13.0653 18.2316 12.1074 17.7091L4.04696 13.3125H2.375C1.23591 13.3125 0.3125 12.3891 0.3125 11.25V8.74999C0.3125 7.6109 1.23591 6.68749 2.375 6.68749H4.04692L12.1074 2.29084ZM12.6083 3.86866L5.06662 7.9823V12.0176L12.6083 16.1313V3.86866ZM1.9375 8.74999C1.9375 8.50836 2.13338 8.31249 2.375 8.31249H3.4375V11.6875H2.375C2.13338 11.6875 1.9375 11.4916 1.9375 11.25V8.74999Z" fill="white"/>
<path d="M18.6388 5.32572C18.9191 5.67612 18.8623 6.18742 18.5119 6.46774L16.4285 8.13441C16.0781 8.41473 15.5668 8.35792 15.2865 8.00752C15.0062 7.65712 15.063 7.14582 15.4134 6.8655L17.4967 5.19883C17.8471 4.91851 18.3584 4.97532 18.6388 5.32572Z" fill="white"/>
<path d="M15.5042 10.0207C15.5042 9.57202 15.868 9.20825 16.3167 9.20825H18.8583C19.307 9.20825 19.6708 9.57202 19.6708 10.0207C19.6708 10.4694 19.307 10.8332 18.8583 10.8332H16.3167C15.868 10.8332 15.5042 10.4694 15.5042 10.0207Z" fill="white"/>
<path d="M16.4285 12.2822C16.0781 12.0019 15.5668 12.0587 15.2865 12.4091C15.0062 12.7595 15.063 13.2708 15.4134 13.5511L17.4967 15.2178C17.8471 15.4981 18.3584 15.4413 18.6388 15.0909C18.9191 14.7405 18.8623 14.2292 18.5119 13.9489L16.4285 12.2822Z" fill="white"/>
</g>
</svg>
