<svg width="16" height="16" viewBox="0 0 16 16" fill="none" xmlns="http://www.w3.org/2000/svg">
<path fill-rule="evenodd" clip-rule="evenodd" d="M1.62496 9.93429C1.83324 9.72601 2.17093 9.72601 2.37921 9.93429L4.64295 12.198L6.90669 9.93429C7.11497 9.72601 7.45266 9.72601 7.66094 9.93429C7.86922 10.1425 7.86922 10.4802 7.66094 10.6885L5.02007 13.3294C4.81179 13.5376 4.47411 13.5376 4.26583 13.3294L1.62496 10.6885C1.41668 10.4802 1.41668 10.1425 1.62496 9.93429Z" fill="#4D4D4D"/>
<path fill-rule="evenodd" clip-rule="evenodd" d="M4.64295 2.51562C4.93751 2.51562 5.17629 2.7544 5.17629 3.04895V12.9522C5.17629 13.2468 4.93751 13.4856 4.64295 13.4856C4.3484 13.4856 4.10962 13.2468 4.10962 12.9522V3.04895C4.10962 2.7544 4.3484 2.51562 4.64295 2.51562Z" fill="#4D4D4D"/>
<path fill-rule="evenodd" clip-rule="evenodd" d="M14.3792 6.06695C14.1709 6.27523 13.8332 6.27523 13.6249 6.06695L11.3612 3.8032L9.09746 6.06695C8.88918 6.27523 8.5515 6.27523 8.34322 6.06695C8.13494 5.85867 8.13494 5.52098 8.34322 5.3127L10.9841 2.67183C11.1924 2.46356 11.53 2.46356 11.7383 2.67183L14.3792 5.3127C14.5875 5.52098 14.5875 5.85867 14.3792 6.06695Z" fill="#4D4D4D"/>
<path fill-rule="evenodd" clip-rule="evenodd" d="M11.3612 13.4855C11.0667 13.4855 10.8279 13.2468 10.8279 12.9522V3.04895C10.8279 2.7544 11.0667 2.51562 11.3612 2.51562C11.6558 2.51562 11.8946 2.7544 11.8946 3.04895V12.9522C11.8946 13.2468 11.6558 13.4855 11.3612 13.4855Z" fill="#4D4D4D"/>
</svg>
